<?xml version="1.0" encoding="UTF-8" standalone="no"?>
<svg width="1080" height="1080" viewBox="0 0 1080 1080" xmlns="http://www.w3.org/2000/svg" xmlns:xlink="http://www.w3.org/1999/xlink">
  <g id="Group_ab65d609aaf04327adc183627bed9d68">
    <path d="M747.17 566.54 L540.02 566.54 L540.02 775.91 L649.37 775.91 C652.11 816.37, 648.19 861.14, 591.92 863.48 C591.92 916.98, 592.21 903.96, 592.29 936.24 C639.43 942.86, 750.92 914.8, 747.09 775.91 L747.17 775.91 L747.17 566.54 Z"
      fill="#FF0000" 
      stroke="none" />
    <path d="M1011.46 566.54 L804.32 566.54 L804.32 775.91 L913.66 775.91 C916.4 816.37, 912.48 861.14, 856.21 863.48 C856.21 916.98, 856.5 903.96, 856.58 936.24 C903.72 942.86, 1015.21 914.8, 1011.38 775.91 L1011.46 775.91 L1011.46 566.54 Z"
      fill="#FF0000" 
      stroke="none" />
  </g>
  <g id="Group_6a88361c15854b37ac6a617de0bc0a03">
    <path d="M332.89 513.49 L540.03 513.44 L539.98 304.07 L430.63 304.09 C427.88 263.64, 431.8 218.87, 488.06 216.52 C488.05 163.02, 487.77 176.04, 487.68 143.76 C440.53 137.15, 329.05 165.23, 332.91 304.12 L332.84 304.12 L332.89 513.49 Z"
      fill="#FF0000" 
      stroke="none" />
    <path d="M68.59 513.55 L275.73 513.51 L275.68 304.13 L166.34 304.16 C163.59 263.71, 167.5 218.93, 223.77 216.58 C223.76 163.08, 223.47 176.1, 223.39 143.82 C176.24 137.21, 64.76 165.29, 68.62 304.18 L68.54 304.18 L68.59 513.55 Z"
      fill="#FF0000" 
      stroke="none" />
  </g>
</svg>