<?xml version="1.0" encoding="UTF-8" standalone="no"?>
<svg width="1080" height="1080" viewBox="0 0 1080 1080" xmlns="http://www.w3.org/2000/svg" xmlns:xlink="http://www.w3.org/1999/xlink">
  <path d="M421.73 564.08 C423.37 563.82, 426.39 562.97, 431.5 562.75 C436.61 562.53, 442.17 563.2, 442.17 563.2 C443.37 563.43, 444.74 563.65, 446.22 563.84 C469.72 566.96, 492.53 578.36, 512.08 596.75 C527.19 610.96, 536.83 624.75, 560.5 665.98 C576.01 693.01, 586.97 709.54, 596.43 720.19 C622.58 749.62, 655.21 763.28, 699.49 763.32 C717.21 763.34, 725.97 762.17, 740.68 757.84 C748.51 755.53, 750.99 755.8, 750.99 758.97 C750.99 760.39, 749.06 762.27, 744.74 765.07 C730.86 774.05, 715.41 779.68, 698.19 782.01 C686.89 783.55, 661.64 782.79, 651.49 780.61 C624.36 774.79, 602.57 763.18, 582.53 743.88 C565.39 727.37, 556.12 714.88, 535.49 680.48 C509.41 636.99, 496.11 620.14, 478.4 608.15 C455.2 592.44, 429.42 589.91, 406.21 601.08 C391.75 608.04, 377.66 623.75, 371.65 639.62 C365.69 655.35, 365.81 654.01, 364.8 715.98 C363.78 778.86, 363.82 778.41, 357.76 783.51 C349.17 790.75, 336.33 788.09, 331.25 778.03 C329.02 773.62, 329.01 773.33, 329.51 739.03 C329.78 720.03, 330.45 635.85, 330.99 551.98 C332.1 381.12, 332.52 356.76, 334.49 353.01 C338.77 344.81, 349.83 340.71, 358.67 344.04 C363.04 345.69, 367.92 351, 369.1 355.4 C369.83 358.09, 369.97 369.79, 369.54 391.43 C368.34 452.14, 366.98 589.16, 367.57 590.11 C367.9 590.64, 370.04 589.34, 372.34 587.22 C385.07 575.48, 403.1 567.04, 421.73 564.08 Z"
    fill-rule="evenodd"
    fill="#35A4F8" 
    stroke="none" />
  <path d="M631.99 304.86 C624.01 311.87, 617.35 318.32, 617.19 319.18 C616.85 320.93, 690.47 399.98, 692.44 399.98 C693.11 399.98, 698.85 395.13, 705.2 389.21 C717.05 378.14, 721.99 372.87, 721.99 371.29 C721.99 370.79, 712.39 360.22, 700.67 347.8 C688.94 335.37, 672.47 317.73, 664.06 308.59 C655.65 299.45, 648.26 292.01, 647.63 292.04 C647 292.08, 639.96 297.85, 631.99 304.86 Z M426.12 563.52 L426.08 563.54 L426.08 563.52 L426.12 563.52 Z M437.27 561.38 C433.37 562.41, 429.25 563.09, 426.12 563.52 C426.55 563.21, 427.08 562.81, 427.72 562.31 C432.96 558.24, 435.01 556.8, 445.66 547.28 C475.66 520.45, 517.81 483.6, 534.63 469.48 C542.04 463.27, 542.69 462.94, 545.99 463.68 C563.16 467.57, 576.99 457.66, 576.99 441.47 C576.99 434.66, 574.5 429.37, 569.27 425.05 C556.2 414.28, 535.45 421.7, 532.02 438.37 C531.29 441.93, 531.28 444.54, 532.01 446.98 C532.24 447.73, 532.6 448.17, 532.72 448.67 C533.21 450.72, 529.79 453.71, 497.38 482.04 C493.24 485.66, 488.62 489.69, 483.49 494.19 C461.49 513.44, 439.98 532.29, 435.69 536.08 C428.6 542.35, 425.99 544.04, 425.99 542.38 C425.99 542.05, 427.51 538.57, 429.36 534.63 C440.07 511.96, 449.85 491.08, 458.26 472.98 C469.42 448.94, 495.07 395.19, 501.21 382.98 L505.49 374.48 L512.49 372.71 C548.43 363.62, 588.55 348.9, 599.99 340.61 C601.91 339.22, 604.2 338.05, 605.07 338.03 C605.94 338, 620.91 352.8, 638.33 370.93 L670 403.87 L662.15 415.68 C643.35 443.94, 631.08 465.88, 617.51 495.45 L614.29 502.48 L603.39 506.12 C593.37 509.46, 485.75 544.85, 452.05 555.88 C444.27 558.43, 445.08 559.32, 437.27 561.38 Z"
    fill-rule="evenodd"
    fill="#35A4F8" 
    stroke="none" />
</svg>