<?xml version="1.0" encoding="UTF-8" standalone="no"?>
<svg width="527.55" height="208.61" viewBox="0 0 527.55 208.61" xmlns="http://www.w3.org/2000/svg" xmlns:xlink="http://www.w3.org/1999/xlink">
  <g id="Group_a61e473a57a74c9892cc2894e11b68b3">
    <path d="M207.24 0.5 C192.83 4.27, 178.74 19.72, 164.71 47.13 C158.45 59.36, 149.93 81.12, 146.66 93.22 C143.88 103.5, 143.69 120.93, 146.24 131.13 C150.86 149.6, 163.22 165.17, 179.8 173.4 C191.61 179.27, 198.1 180.8, 213.72 181.37 C237.27 182.25, 246.4 178.1, 250.42 164.7 C253.88 153.16, 250.07 140.9, 239.85 130.68 L234.18 125.01 L238.9 123.89 C252.75 120.6, 259.21 109.3, 253.71 97.95 C249.65 89.56, 240.98 84.16, 220.3 77.12 C204.93 71.9, 199.39 68.77, 196.92 63.95 C193.97 58.19, 203.47 49.39, 216.25 46.01 C218.98 45.29, 221.35 44.85, 221.53 45.03 C221.71 45.2, 220.94 47.47, 219.83 50.07 C217.27 56.03, 217.27 59.9, 219.8 65.13 C223.26 72.28, 232.12 75.58, 238.7 72.18 C250.28 66.2, 253.54 48.23, 245.1 36.87 C236.12 24.77, 210.66 26.48, 193.22 40.37 C184.3 47.47, 182.32 56.04, 187.27 66.16 C191.9 75.63, 200.44 81.4, 227.3 93.22 C239.58 98.62, 244.8 101.43, 244.8 102.64 C244.8 104.28, 238.68 108.53, 233.57 110.44 C219.62 115.63, 208.76 115.69, 182.54 110.68 C174.16 109.08, 165.03 107.48, 162.25 107.13 C154.55 106.16, 154.22 105.71, 157.13 99.96 C159.59 95.11, 172.31 66.79, 179.91 49.25 C186.87 33.19, 192.06 26.97, 203.68 20.78 C211.66 16.52, 219.7 14.63, 229.77 14.63 C243.28 14.63, 252.6 18.97, 259 28.23 L261.69 32.13 L260.68 59.63 C259.58 89.65, 259.79 93.72, 262.74 99.51 C264.81 103.56, 266.39 104.63, 270.32 104.63 C273.17 104.63, 284.08 96, 295.49 84.72 C300 80.27, 303.94 76.63, 304.24 76.63 C304.55 76.63, 304.8 79.89, 304.8 83.88 C304.81 91.79, 306.93 106.36, 308.77 111.13 C311.41 117.98, 318.12 122.63, 325.35 122.63 C332.22 122.63, 335.93 120.36, 345.32 110.38 L353.8 101.37 L353.8 107.55 C353.8 113.98, 352.26 118.27, 348.43 122.48 C344.27 127.06, 340.95 128.1, 330.8 128.02 C322.15 127.96, 320.1 127.53, 307.8 123.23 C290.23 117.09, 273.01 111.63, 271.22 111.63 C267.35 111.63, 272.65 134.28, 279.18 145.63 C285.01 155.78, 306.88 178.54, 320.24 188.37 C337.62 201.17, 358.11 208.61, 375.99 208.63 C394.82 208.64, 418.15 196.31, 423.76 183.37 C429.29 170.64, 425.82 155.6, 417.38 155.65 C415.68 155.65, 413.8 155.99, 413.19 156.4 C411.45 157.54, 408.8 163.28, 408.8 165.88 C408.8 172.58, 400.35 183.2, 391.3 187.87 C372.89 197.36, 329.58 181.43, 299.8 154.22 C291.26 146.41, 282.8 133.71, 282.8 128.68 C282.8 126.77, 282.98 126.74, 286.05 128.12 C287.84 128.93, 297.85 132.79, 308.3 136.71 C324.37 142.74, 328.54 143.91, 335.31 144.35 C344.07 144.9, 347.99 143.82, 355.14 138.89 C361.7 134.35, 367.8 123.02, 367.8 115.36 C367.8 109.9, 364.66 101.48, 361.2 97.65 C358.38 94.53, 357.8 93.11, 357.8 89.34 C357.8 82.35, 354.75 79.41, 344.03 76.09 C335.19 73.35, 325.57 68.98, 320.55 65.44 C317.83 63.52, 317.8 63.36, 317.8 52.41 L317.8 41.32 L321.96 37.36 C325.91 33.61, 326.38 33.43, 331.33 33.84 C335.59 34.2, 337.8 35.17, 343.42 39.16 C356.82 48.67, 375.65 70.11, 379.14 79.83 C380.17 82.7, 381.02 90.89, 381.68 104.41 C382.78 127.07, 383.66 130.35, 389.74 134.39 C392.7 136.36, 393.37 136.49, 394.59 135.27 C395.8 134.06, 395.77 130.4, 394.39 109 C392.09 73.38, 392.2 69.34, 395.69 59.76 C403.87 37.36, 419.48 26.06, 445.39 23.79 C456.15 22.84, 470.24 24.08, 479.24 26.76 C486.67 28.97, 506.97 38.2, 511.59 41.47 C515.42 44.17, 520.19 44.99, 524.3 43.63 C529.02 42.07, 528.8 39.96, 523.27 33.81 C513.67 23.13, 491.18 12.17, 471.8 8.73 C429.45 1.21, 402.42 12.46, 384.33 45.12 C381.76 49.77, 381.62 50.64, 382.25 57.6 C382.62 61.72, 382.72 64.87, 382.47 64.61 C382.21 64.35, 379.82 60.87, 377.15 56.89 C370.5 46.97, 360.84 37.34, 351.3 31.1 C327.71 15.69, 315.53 14.35, 307.69 26.29 C306.25 28.49, 306.09 30.85, 306.55 43.08 L307.08 57.3 L295.69 57.46 C281.26 57.67, 279.12 57.06, 274.94 51.59 C271.61 47.22, 271.59 47.12, 272.25 39.48 C273.2 28.63, 271.78 24.64, 264.33 17.11 C252.94 5.61, 240.79 0.69, 222.3 0.09 C215.7 -0.13, 208.92 0.06, 207.24 0.5 Z M92.8 29.63 C92.8 36.23, 92.41 41.63, 91.94 41.63 C91.46 41.63, 90 40.79, 88.69 39.77 C85.14 36.99, 76.28 32.7, 69.92 30.67 C45.78 22.99, 25.54 27.17, 18.42 41.32 C17.16 43.82, 17.04 45.13, 17.87 47.32 C20.75 54.9, 24.69 55.39, 32.92 49.2 C42.68 41.86, 48.57 39.45, 56.76 39.45 C67.76 39.45, 82.89 45.16, 87.18 50.92 C93.84 59.89, 84.66 72.43, 67.27 78.11 C62.99 79.51, 58.83 81.19, 58.04 81.85 C53.77 85.39, 54.89 92.29, 60.26 95.6 C67.21 99.9, 78.23 96.72, 85.13 88.43 L88.69 84.14 L88.65 89.48 C88.61 94.01, 89.04 95.27, 91.43 97.77 C93.38 99.8, 95.05 100.63, 96.78 100.42 C99.19 100.14, 99.33 99.77, 99.95 91.63 C100.31 86.96, 100.68 75.26, 100.78 65.63 L100.96 48.13 L102.93 52.13 C104.67 55.67, 104.83 57.51, 104.32 68.13 C104 74.73, 104.05 81.64, 104.42 83.49 C105.1 86.88, 111.51 94.63, 113.63 94.63 C113.66 94.63, 113.7 94.63, 113.73 94.63 C113.88 94.63, 114.01 94.63, 114.12 94.6 C114.92 94.36, 115.21 92.39, 117.63 77.04 C119.71 63.77, 125.11 46.89, 128.27 43.73 C130.48 41.52, 132.75 43.15, 135.73 49.1 C137.7 53.01, 138.16 55.43, 138.12 61.54 C138.06 70.24, 136.68 74.81, 129.76 89.24 C120.69 108.18, 107.76 121.04, 88.77 130.04 C77.42 135.41, 68.87 137.6, 59.1 137.62 C43.73 137.65, 33.41 133.31, 22.29 122.16 C12.92 112.77, 10.43 107.58, 9.97 96.57 C9.49 84.87, 10.82 81.87, 18.2 78.14 C25.41 74.49, 26.12 73.61, 24.78 70.09 C22.42 63.87, 15.87 61.24, 10.54 64.35 C3.13 68.68, -0.7 79.24, 0.09 93.13 C1.7 121.09, 23.13 146.55, 49.85 152.24 C59.28 154.25, 74.52 153.58, 84.19 150.72 C102.59 145.3, 119.47 132.03, 133.3 112.13 C152.88 83.95, 156.13 57.38, 142.23 39.13 C138.56 34.33, 129.83 29.59, 123.41 28.93 L117.81 28.35 L116.41 31.74 C115.63 33.61, 114.67 37.83, 114.28 41.13 C113.22 49.92, 112.28 50.73, 110.95 43.99 C109.25 35.36, 104.79 26.76, 99.47 21.88 C96.93 19.54, 94.39 17.63, 93.82 17.63 C93.18 17.63, 92.8 22.12, 92.8 29.63 Z M236.22 45.88 C238.21 51.54, 234.04 56.73, 230.42 53.11 C228.5 51.19, 228.23 44.04, 230.05 43.27 C232.76 42.14, 235.29 43.21, 236.22 45.88 Z M274.99 61.51 C276.81 62.54, 281.34 64.45, 285.05 65.75 C288.77 67.05, 291.69 68.39, 291.55 68.73 C291.17 69.68, 272.34 85.68, 270.07 86.99 C268.81 87.72, 268.67 87.11, 269.16 82.99 C269.47 80.32, 270.02 73.97, 270.37 68.88 C270.72 63.79, 271.16 59.63, 271.35 59.63 C271.53 59.63, 273.17 60.48, 274.99 61.51 Z M334.72 85.17 C338.59 87.35, 341.76 89.65, 341.78 90.29 C341.81 91.74, 324.57 109.63, 323.15 109.63 C322.58 109.63, 321.26 108.69, 320.22 107.54 C318.67 105.83, 318.22 103.2, 317.68 92.79 C317.32 85.83, 316.67 77.89, 316.24 75.14 L315.46 70.16 L321.57 75.69 C324.93 78.73, 330.85 83, 334.72 85.17 Z M159.01 116.72 C167.11 119.91, 195.1 126.42, 206.3 127.72 C211.8 128.35, 216.45 129, 216.62 129.16 C216.8 129.32, 216.24 130.81, 215.37 132.49 C211.75 139.5, 214.57 147.76, 221.67 150.9 C227.99 153.69, 232.47 152.52, 235.4 147.28 C237.7 143.18, 238.17 143.3, 239.24 148.3 C240.27 153.08, 238.08 159.63, 234.25 163.25 C227.06 170.03, 215.07 171.37, 200.16 167.08 C172.38 159.07, 154.82 142.19, 153.12 121.86 C152.78 117.88, 152.78 114.63, 153.12 114.63 C153.45 114.63, 156.11 115.57, 159.01 116.72 Z"
      fill-rule="evenodd"
      fill="#0018B6" 
      stroke="none" />
  </g>
</svg>