<?xml version="1.0" encoding="UTF-8" standalone="no"?>
<svg width="1080" height="1080" viewBox="0 0 1080 1080" xmlns="http://www.w3.org/2000/svg" xmlns:xlink="http://www.w3.org/1999/xlink">
  <g id="Group_52efb05a04244a80854ee367ab99e631">
    <path d="M769.15 156.83 L310.85 156.66 L310.85 147.66 L769.15 147.83 L769.15 156.83 Z"
      fill="#FF0000" 
      stroke="none" />
    <path d="M769.15 933.86 L310.85 933.69 L310.85 924.69 L769.15 924.86 L769.15 933.86 Z"
      fill="#FF0000" 
      stroke="none" />
    <path d="M270.49 891.89 L270.71 188.1 L281.95 188.11 L281.73 891.9 L270.49 891.89 Z"
      fill="#FF0000" 
      stroke="none" />
    <path d="M802.14 891.9 L802.35 188.1 L813.64 188.1 L813.43 891.9 L802.14 891.9 Z"
      fill="#FF0000" 
      stroke="none" />
    <path d="M260.26 174.68 L819.74 174.68 L819.74 168.29 L260.26 168.29 L260.26 174.68 Z"
      fill="#FF0000" 
      stroke="none" />
    <path d="M260.26 912.26 L819.74 912.26 L819.74 905.86 L260.26 905.86 L260.26 912.26 Z"
      fill="#FF0000" 
      stroke="none" />
    <path d="M784.5 134.64 L784.5 945.36 L790.9 945.36 L790.9 134.64 L784.5 134.64 Z"
      fill="#FF0000" 
      stroke="none" />
    <path d="M292.29 134.64 L292.29 945.36 L298.69 945.36 L298.69 134.64 L292.29 134.64 Z"
      fill="#FF0000" 
      stroke="none" />
    <path d="M282.48 132.05 L255.06 132.05 L255.06 160.34 L259.06 160.34 L259.06 136.05 L282.48 136.05 L282.48 132.05 Z"
      fill="#FF0000" 
      stroke="none" />
    <path d="M797.52 132.05 L824.94 132.05 L824.94 160.34 L820.94 160.34 L820.94 136.05 L797.52 136.05 L797.52 132.05 Z"
      fill="#FF0000" 
      stroke="none" />
    <path d="M797.53 947.95 L824.95 947.95 L824.95 919.65 L820.95 919.65 L820.95 943.95 L797.53 943.95 L797.53 947.95 Z"
      fill="#FF0000" 
      stroke="none" />
    <path d="M282.47 947.95 L255.05 947.95 L255.05 919.65 L259.05 919.65 L259.05 943.95 L282.47 943.95 L282.47 947.95 Z"
      fill="#FF0000" 
      stroke="none" />
  </g>
</svg>